<?xml version="1.0" encoding="UTF-8"?>
<svg id="Camada_1" data-name="Camada 1" xmlns="http://www.w3.org/2000/svg" viewBox="0 0 1080 1080">
  <defs>
    <style>
      .cls-1 {
        fill: #fcee21;
      }
    </style>
  </defs>
  <path class="cls-1" d="M40,757.35v-15.12l12.09-1.21c15.72-2.01,27.21-4.63,34.46-7.86,7.26-3.22,11.99-9.27,14.21-18.14,2.21-8.86,3.33-22.16,3.33-39.9v-268.44c0-18.14-1.11-31.53-3.33-40.2-2.22-8.66-6.95-14.71-14.21-18.14-7.26-3.42-18.74-5.94-34.46-7.56l-12.09-1.21v-15.11l90.08,1.81,89.48-1.81v15.11l-12.09,1.21c-15.32,1.61-26.7,4.14-34.16,7.56-7.46,3.43-12.3,9.48-14.51,18.14-2.22,8.67-3.32,22.07-3.32,40.2v268.44c0,17.74,1.11,31.04,3.32,39.9,2.21,8.87,7.05,14.92,14.51,18.14,7.46,3.23,18.84,5.85,34.16,7.86l12.09,1.21v15.12l-89.48-1.81-90.08,1.81Z"/>
  <path class="cls-1" d="M430.57,762.19c-16.12,0-30.74-2.63-43.83-7.86-13.1-5.23-24.89-10.47-35.37-15.72-8.87-4.84-16.23-8.47-22.07-10.88-5.85-2.42-10.99-3.63-15.42-3.63-5.65,0-9.58,2.32-11.79,6.95-2.22,4.64-3.93,9.78-5.14,15.42l-1.81,9.07h-15.11l3.02-71.34-1.81-77.99h15.11l6.65,28.42c4.43,17.74,12.39,35.07,23.88,51.99,11.49,16.93,26,30.84,43.53,41.72,17.54,10.88,37.58,16.32,60.16,16.32,12.49,0,24.49-2.72,35.97-8.16,11.49-5.44,20.96-13.8,28.42-25.09,7.45-11.28,11.19-26,11.19-44.14s-3.93-33.75-11.79-46.86c-7.86-13.09-19.15-24.88-33.86-35.37-14.72-10.47-32.55-20.55-53.51-30.23l-25.39-12.09c-30.23-14.51-52.7-30.53-67.41-48.07-14.72-17.53-22.07-40-22.07-67.41,0-21.36,5.23-40.3,15.72-56.83,10.47-16.52,24.88-29.42,43.23-38.69,18.34-9.27,39.39-13.91,63.18-13.91,16.52,0,30.43,2.22,41.72,6.65,11.28,4.44,20.15,8.27,26.6,11.49,10.48,5.24,18.74,7.86,24.79,7.86,6.44,0,10.28-6.24,11.49-18.74h15.11l-1.81,58.04,1.21,58.65h-15.11c-2.42-22.57-8.67-41.81-18.74-57.74-10.08-15.92-22.28-28.11-36.58-36.58-14.31-8.47-29.53-12.7-45.65-12.7-23.79,0-43.03,6.86-57.74,20.56-14.72,13.71-22.07,31.24-22.07,52.6,0,22.97,7.45,41.02,22.37,54.11,14.91,13.1,34.26,25.5,58.04,37.18l24.79,12.09c22.16,10.88,41.21,22.07,57.14,33.56,15.92,11.49,28.21,24.89,36.88,40.2,8.66,15.32,13,34.46,13,57.44s-5.35,44.74-16.02,62.88c-10.68,18.14-25,32.15-42.93,42.02-17.94,9.87-37.99,14.81-60.16,14.81Z"/>
  <path class="cls-1" d="M830.2,762.19c-30.63,0-58.75-5.44-84.34-16.32-25.6-10.88-47.76-26.3-66.51-46.25-18.74-19.95-33.25-43.53-43.53-70.74-10.28-27.21-15.42-56.93-15.42-89.18s5.14-61.86,15.42-88.87c10.28-27,24.79-50.48,43.53-70.44,18.74-19.95,40.9-35.37,66.51-46.25,25.59-10.88,53.7-16.32,84.34-16.32s58.74,5.44,84.34,16.32c25.59,10.88,47.76,26.3,66.51,46.25,18.74,19.95,33.25,43.44,43.53,70.44,10.28,27.01,15.42,56.63,15.42,88.87s-5.14,61.97-15.42,89.18c-10.28,27.21-24.79,50.79-43.53,70.74-18.74,19.95-40.92,35.37-66.51,46.25-25.6,10.88-53.71,16.32-84.34,16.32ZM830.2,744.05c98.75,0,148.13-68.11,148.13-204.36s-49.38-203.75-148.13-203.75-148.13,67.92-148.13,203.75,49.37,204.36,148.13,204.36Z"/>
</svg>