<?xml version="1.0" encoding="UTF-8"?>
<svg id="Camada_1" data-name="Camada 1" xmlns="http://www.w3.org/2000/svg" viewBox="0 0 1080 250">
  <defs>
    <style>
      .cls-1 {
        fill: #fff;
      }

      .cls-2 {
        fill: #fcee21;
      }
    </style>
  </defs>
  <g>
    <path class="cls-1" d="M252.91,151.32c-8.57,7.15-20.8,10.72-36.71,10.72h-30.48v52.63h-30.39V68.3h62.85c14.49,0,26.04,3.77,34.65,11.32,8.61,7.55,12.92,19.23,12.92,35.05,0,17.28-4.29,29.49-12.85,36.64ZM229.57,98.59c-3.87-3.24-9.3-4.87-16.28-4.87h-27.56v43.1h27.56c6.98,0,12.4-1.75,16.28-5.26,3.87-3.51,5.81-9.07,5.81-16.68s-1.94-13.04-5.81-16.29Z"/>
    <path class="cls-1" d="M330.88,148.84c5.27-.66,9.03-1.49,11.3-2.48,4.07-1.72,6.1-4.4,6.1-8.04,0-4.43-1.56-7.5-4.68-9.19-3.12-1.69-7.7-2.53-13.74-2.53-6.78,0-11.58,1.66-14.39,4.97-2.01,2.45-3.36,5.76-4.03,9.93h-27.31c.6-9.47,3.26-17.24,7.98-23.34,7.51-9.53,20.41-14.3,38.7-14.3,11.9,0,22.47,2.35,31.71,7.05,9.24,4.7,13.86,13.57,13.86,26.61v49.65c0,3.44.07,7.61.2,12.51.2,3.71.76,6.22,1.69,7.55.93,1.32,2.32,2.42,4.17,3.28v4.17h-30.78c-.86-2.18-1.46-4.24-1.79-6.16-.33-1.92-.6-4.1-.79-6.55-3.93,4.24-8.46,7.84-13.58,10.82-6.13,3.51-13.05,5.26-20.78,5.26-9.86,0-18-2.8-24.42-8.39-6.43-5.59-9.64-13.52-9.64-23.78,0-13.31,5.17-22.94,15.5-28.9,5.67-3.24,14.01-5.56,25.01-6.95l9.7-1.19ZM348.18,162.04c-1.81,1.13-3.64,2.04-5.49,2.73-1.85.7-4.38,1.34-7.6,1.94l-6.44,1.19c-6.04,1.06-10.38,2.35-13.01,3.87-4.46,2.58-6.69,6.59-6.69,12.02,0,4.83,1.36,8.33,4.08,10.48,2.72,2.15,6.03,3.23,9.93,3.23,6.18,0,11.88-1.79,17.09-5.36,5.21-3.58,7.91-10.09,8.12-19.56v-10.53Z"/>
    <path class="cls-1" d="M461.24,103.9c.36.03,1.17.08,2.43.15v29c-1.79-.2-3.38-.33-4.77-.4-1.39-.06-2.52-.1-3.38-.1-11.39,0-19.03,3.71-22.94,11.12-2.18,4.17-3.28,10.59-3.28,19.26v51.74h-28.5v-108.24h27.01v18.87c4.37-7.21,8.18-12.15,11.42-14.8,5.3-4.43,12.18-6.65,20.65-6.65.53,0,.98.02,1.34.05Z"/>
    <path class="cls-1" d="M523.13,148.84c5.27-.66,9.03-1.49,11.3-2.48,4.07-1.72,6.1-4.4,6.1-8.04,0-4.43-1.56-7.5-4.68-9.19-3.12-1.69-7.7-2.53-13.74-2.53-6.78,0-11.58,1.66-14.39,4.97-2.01,2.45-3.36,5.76-4.03,9.93h-27.31c.6-9.47,3.26-17.24,7.98-23.34,7.51-9.53,20.41-14.3,38.7-14.3,11.9,0,22.47,2.35,31.71,7.05,9.24,4.7,13.86,13.57,13.86,26.61v49.65c0,3.44.06,7.61.2,12.51.2,3.71.76,6.22,1.69,7.55.93,1.32,2.32,2.42,4.17,3.28v4.17h-30.78c-.86-2.18-1.46-4.24-1.79-6.16-.33-1.92-.6-4.1-.79-6.55-3.93,4.24-8.46,7.84-13.58,10.82-6.13,3.51-13.05,5.26-20.78,5.26-9.86,0-18-2.8-24.42-8.39-6.43-5.59-9.64-13.52-9.64-23.78,0-13.31,5.17-22.94,15.5-28.9,5.67-3.24,14.01-5.56,25.01-6.95l9.7-1.19ZM540.43,162.04c-1.81,1.13-3.64,2.04-5.49,2.73-1.85.7-4.38,1.34-7.6,1.94l-6.44,1.19c-6.04,1.06-10.38,2.35-13.01,3.87-4.46,2.58-6.69,6.59-6.69,12.02,0,4.83,1.36,8.33,4.08,10.48,2.72,2.15,6.03,3.23,9.93,3.23,6.18,0,11.88-1.79,17.09-5.36,5.21-3.58,7.92-10.09,8.12-19.56v-10.53Z"/>
    <path class="cls-2" d="M588.29,215.28v-5.08l4.07-.41c5.29-.68,9.15-1.56,11.59-2.64,2.44-1.08,4.03-3.12,4.78-6.1.74-2.98,1.12-7.45,1.12-13.42v-90.3c0-6.1-.38-10.61-1.12-13.52-.75-2.91-2.34-4.95-4.78-6.1-2.44-1.15-6.3-2-11.59-2.54l-4.07-.41v-5.08l30.3.61,30.1-.61v5.08l-4.07.41c-5.15.54-8.98,1.39-11.49,2.54-2.51,1.15-4.14,3.19-4.88,6.1-.75,2.92-1.12,7.42-1.12,13.52v90.3c0,5.97.37,10.44,1.12,13.42.74,2.98,2.37,5.02,4.88,6.1,2.51,1.09,6.34,1.97,11.49,2.64l4.07.41v5.08l-30.1-.61-30.3.61Z"/>
    <path class="cls-2" d="M719.66,216.91c-5.42,0-10.34-.88-14.74-2.64-4.41-1.76-8.37-3.52-11.9-5.29-2.98-1.63-5.46-2.85-7.42-3.66-1.97-.81-3.7-1.22-5.19-1.22-1.9,0-3.22.78-3.97,2.34-.75,1.56-1.32,3.29-1.73,5.19l-.61,3.05h-5.08l1.02-24-.61-26.23h5.08l2.24,9.56c1.49,5.97,4.17,11.79,8.03,17.49,3.86,5.69,8.75,10.37,14.64,14.03,5.9,3.66,12.64,5.49,20.24,5.49,4.2,0,8.24-.92,12.1-2.75,3.86-1.83,7.05-4.64,9.56-8.44,2.51-3.79,3.76-8.75,3.76-14.85s-1.32-11.35-3.97-15.76c-2.64-4.4-6.44-8.37-11.39-11.9-4.95-3.52-10.95-6.91-18-10.17l-8.54-4.07c-10.17-4.88-17.73-10.27-22.68-16.17-4.95-5.9-7.42-13.45-7.42-22.68,0-7.18,1.76-13.56,5.29-19.12,3.52-5.56,8.37-9.89,14.54-13.02,6.17-3.12,13.25-4.68,21.25-4.68,5.56,0,10.24.75,14.03,2.24,3.79,1.49,6.78,2.78,8.95,3.86,3.52,1.76,6.3,2.64,8.34,2.64,2.17,0,3.46-2.1,3.86-6.3h5.08l-.61,19.52.41,19.73h-5.08c-.81-7.59-2.92-14.06-6.3-19.42-3.39-5.35-7.49-9.46-12.3-12.3-4.81-2.85-9.93-4.27-15.35-4.27-8,0-14.47,2.31-19.42,6.92-4.95,4.61-7.42,10.51-7.42,17.69,0,7.73,2.51,13.8,7.52,18.2,5.01,4.41,11.52,8.58,19.52,12.51l8.34,4.07c7.46,3.66,13.86,7.42,19.22,11.29,5.35,3.86,9.49,8.37,12.41,13.52,2.91,5.15,4.37,11.59,4.37,19.32s-1.8,15.05-5.39,21.15c-3.59,6.1-8.41,10.81-14.44,14.13-6.03,3.32-12.78,4.98-20.24,4.98Z"/>
    <path class="cls-2" d="M854.09,216.91c-10.3,0-19.76-1.83-28.37-5.49-8.61-3.66-16.07-8.85-22.37-15.56s-11.19-14.64-14.64-23.79c-3.46-9.15-5.19-19.15-5.19-30s1.73-20.81,5.19-29.89c3.46-9.08,8.34-16.98,14.64-23.69,6.3-6.71,13.76-11.9,22.37-15.56,8.61-3.66,18.06-5.49,28.37-5.49s19.76,1.83,28.37,5.49c8.61,3.66,16.07,8.85,22.37,15.56,6.3,6.71,11.19,14.61,14.64,23.69,3.46,9.08,5.19,19.05,5.19,29.89s-1.73,20.85-5.19,30c-3.46,9.15-8.34,17.08-14.64,23.79s-13.76,11.9-22.37,15.56c-8.61,3.66-18.07,5.49-28.37,5.49ZM854.09,210.81c33.22,0,49.83-22.91,49.83-68.74s-16.61-68.54-49.83-68.54-49.83,22.85-49.83,68.54,16.61,68.74,49.83,68.74Z"/>
  </g>
  <g>
    <path class="cls-1" d="M298.09,31.95h39.97v7.06h-32.17v17.5h28.28v6.86h-28.28v26.2h-7.81V31.95Z"/>
    <path class="cls-1" d="M345.67,47.56h6.71v7.26c.55-1.41,1.9-3.13,4.04-5.16,2.14-2.03,4.62-3.04,7.41-3.04.13,0,.35.01.67.04.31.03.85.08,1.61.16v7.45c-.42-.08-.8-.13-1.16-.16-.35-.03-.74-.04-1.16-.04-3.56,0-6.29,1.14-8.2,3.43-1.91,2.29-2.86,4.92-2.86,7.9v24.16h-7.06v-42.01Z"/>
    <path class="cls-1" d="M394.75,64.12c1.62-.21,2.71-.89,3.26-2.04.31-.63.47-1.53.47-2.71,0-2.41-.86-4.15-2.57-5.24-1.71-1.08-4.17-1.63-7.36-1.63-3.69,0-6.3.99-7.85,2.98-.86,1.1-1.43,2.73-1.69,4.9h-6.59c.13-5.18,1.81-8.78,5.04-10.81,3.23-2.03,6.98-3.04,11.24-3.04,4.94,0,8.96.94,12.04,2.82,3.06,1.88,4.59,4.81,4.59,8.79v24.2c0,.73.15,1.32.45,1.77.3.44.93.67,1.9.67.31,0,.67-.02,1.06-.06.39-.04.81-.1,1.25-.18v5.22c-1.1.31-1.94.51-2.51.59-.58.08-1.36.12-2.35.12-2.43,0-4.2-.86-5.3-2.59-.58-.92-.98-2.21-1.22-3.88-1.44,1.88-3.5,3.52-6.2,4.9-2.69,1.39-5.66,2.08-8.9,2.08-3.9,0-7.08-1.18-9.55-3.55-2.47-2.37-3.71-5.33-3.71-8.89,0-3.9,1.22-6.92,3.65-9.06,2.43-2.14,5.62-3.46,9.57-3.96l11.26-1.41ZM379.88,83.22c1.49,1.18,3.26,1.77,5.3,1.77,2.48,0,4.89-.57,7.22-1.73,3.92-1.91,5.88-5.03,5.88-9.38v-5.69c-.86.55-1.97,1.01-3.33,1.37-1.36.37-2.69.63-4,.78l-4.28.55c-2.56.34-4.49.88-5.77,1.61-2.17,1.23-3.26,3.19-3.26,5.88,0,2.04.75,3.65,2.24,4.82Z"/>
    <path class="cls-1" d="M416.91,47.56h6.98v5.96c1.67-2.07,3.19-3.57,4.55-4.51,2.33-1.59,4.97-2.39,7.92-2.39,3.35,0,6.04.82,8.08,2.47,1.15.94,2.2,2.33,3.14,4.16,1.57-2.25,3.41-3.92,5.53-5,2.12-1.08,4.5-1.63,7.14-1.63,5.65,0,9.49,2.04,11.53,6.12,1.1,2.2,1.65,5.15,1.65,8.87v27.97h-7.34v-29.19c0-2.8-.7-4.72-2.1-5.77-1.4-1.05-3.11-1.57-5.12-1.57-2.77,0-5.16.93-7.16,2.79-2,1.86-3,4.96-3,9.3v24.44h-7.18v-27.42c0-2.85-.34-4.93-1.02-6.24-1.07-1.96-3.07-2.94-6-2.94-2.67,0-5.09,1.03-7.28,3.1-2.18,2.07-3.28,5.81-3.28,11.22v22.28h-7.06v-42.01Z"/>
    <path class="cls-1" d="M510,48.72c2.8,1.4,4.93,3.21,6.39,5.43,1.41,2.12,2.35,4.59,2.82,7.41.42,1.94.63,5.02.63,9.26h-30.79c.13,4.26,1.14,7.68,3.02,10.26,1.88,2.58,4.8,3.86,8.75,3.86,3.69,0,6.63-1.22,8.83-3.65,1.26-1.41,2.14-3.05,2.67-4.9h6.94c-.18,1.54-.79,3.26-1.82,5.16-1.03,1.9-2.19,3.45-3.47,4.65-2.15,2.09-4.8,3.5-7.96,4.24-1.7.42-3.62.63-5.77.63-5.23,0-9.66-1.9-13.3-5.71-3.64-3.81-5.45-9.13-5.45-15.99s1.83-12.23,5.49-16.44c3.66-4.21,8.45-6.32,14.36-6.32,2.98,0,5.87.7,8.67,2.1ZM512.59,65.22c-.29-3.06-.96-5.5-2-7.34-1.94-3.4-5.17-5.1-9.69-5.1-3.24,0-5.96,1.17-8.16,3.51-2.2,2.34-3.36,5.32-3.49,8.92h23.34Z"/>
    <path class="cls-1" d="M532.71,76.4c.21,2.35.8,4.16,1.77,5.41,1.78,2.28,4.86,3.41,9.26,3.41,2.62,0,4.92-.57,6.9-1.71,1.99-1.14,2.98-2.9,2.98-5.28,0-1.8-.8-3.18-2.39-4.12-1.02-.58-3.03-1.24-6.04-2l-5.61-1.41c-3.58-.89-6.22-1.88-7.92-2.98-3.03-1.91-4.55-4.55-4.55-7.92,0-3.97,1.43-7.19,4.3-9.65,2.86-2.46,6.71-3.69,11.55-3.69,6.33,0,10.89,1.86,13.69,5.57,1.75,2.35,2.6,4.89,2.55,7.61h-6.67c-.13-1.59-.69-3.05-1.69-4.35-1.62-1.86-4.43-2.79-8.43-2.79-2.67,0-4.69.51-6.06,1.53-1.37,1.02-2.06,2.37-2.06,4.04,0,1.83.9,3.3,2.71,4.39,1.05.65,2.59,1.23,4.63,1.73l4.67,1.14c5.07,1.23,8.47,2.42,10.2,3.57,2.75,1.8,4.12,4.64,4.12,8.51s-1.42,6.97-4.26,9.69c-2.84,2.72-7.16,4.08-12.96,4.08-6.25,0-10.68-1.42-13.28-4.26-2.6-2.84-4-6.35-4.18-10.53h6.79Z"/>
  </g>
</svg>